<svg width="477" height="359" viewBox="0 0 477 359" fill="none" xmlns="http://www.w3.org/2000/svg">
<path d="M8.36472 136.552C21.46 128.579 301.708 143.242 327.274 136.552C385.404 130.349 381.098 96.5041 371.679 80.3572C362.26 50.9216 349.88 -5.54129 375.716 4.09219C401.552 13.7257 399.937 50.9215 395.9 68.3152C420.121 48.2454 464.526 28.1757 472.6 44.2315C480.674 60.2873 452.416 84.371 424.158 96.4128C401.552 106.046 395.9 127.186 395.9 136.552C392.671 232.887 367.256 263.536 363.606 273.027C359.955 282.517 279.64 372.573 137.543 353.306C-4.55313 334.039 -4.73056 144.526 8.36472 136.552Z" fill="#198CE0" stroke="#73ABFF" stroke-width="5"/>
<path d="M73.0976 201.205C73.0976 202.485 73.0336 203.787 72.9056 205.109C72.7776 206.389 72.5216 207.648 72.1376 208.885C71.7536 210.08 71.1776 211.232 70.4096 212.341C69.6416 213.408 68.5963 214.347 67.2736 215.157C66.6336 215.584 65.8656 215.947 64.9696 216.245C64.1163 216.502 63.1989 216.715 62.2176 216.886C61.2789 217.099 60.3403 217.227 59.4016 217.27C58.4629 217.355 57.5883 217.376 56.7776 217.334C52.9376 217.206 49.8229 216.288 47.4336 214.581C45.0869 212.832 43.2736 210.677 41.9936 208.117C40.7563 205.557 39.9456 202.784 39.5616 199.797C39.2203 196.768 39.1563 193.888 39.3696 191.157C39.4976 189.536 39.7749 187.787 40.2016 185.909C40.6709 184.032 41.3323 182.219 42.1856 180.469C43.0816 178.72 44.1696 177.141 45.4496 175.733C46.7723 174.325 48.3296 173.259 50.1216 172.533C51.7856 171.851 53.5989 171.424 55.5616 171.253C57.5669 171.04 59.5296 171.104 61.4496 171.445C63.4123 171.787 65.2256 172.405 66.8896 173.301C68.5963 174.197 69.9403 175.392 70.9216 176.885C71.6043 177.995 72.1376 179.339 72.5216 180.917C72.9056 182.496 72.9696 184.011 72.7136 185.461C72.5003 186.741 72.0523 187.637 71.3696 188.149C70.6869 188.619 69.9403 188.811 69.1296 188.725C68.3189 188.597 67.5296 188.256 66.7616 187.701C66.0363 187.104 65.5456 186.357 65.2896 185.461C64.9909 184.48 64.6283 183.584 64.2016 182.773C63.7749 181.92 63.1136 181.216 62.2176 180.661C61.1936 180.021 60.1056 179.659 58.9536 179.573C57.8443 179.488 56.7563 179.616 55.6896 179.957C54.6656 180.299 53.6843 180.832 52.7456 181.557C51.8496 182.283 51.1029 183.115 50.5056 184.053C49.7803 185.12 49.2256 186.293 48.8416 187.573C48.4576 188.811 48.1803 190.112 48.0096 191.477C47.8389 192.8 47.7749 194.144 47.8176 195.509C47.9029 196.832 48.0736 198.112 48.3296 199.349C48.7989 201.44 49.5243 203.403 50.5056 205.237C50.8896 205.92 51.4016 206.539 52.0416 207.093C52.7243 207.605 53.4709 208.032 54.2816 208.373C55.0923 208.672 55.9456 208.864 56.8416 208.949C57.7376 209.035 58.5909 208.971 59.4016 208.757C60.5536 208.459 61.4923 208.075 62.2176 207.605C62.9429 207.093 63.5189 206.496 63.9456 205.813C64.3723 205.131 64.6496 204.384 64.7776 203.573C64.9483 202.763 65.0336 201.909 65.0336 201.013V200.949C64.4789 200.949 63.9883 200.949 63.5616 200.949C63.1349 200.907 62.8149 200.885 62.6016 200.885C61.6629 200.885 60.7456 200.715 59.8496 200.373C59.0816 200.117 58.5056 199.712 58.1216 199.157C57.6949 198.688 57.4816 198.112 57.4816 197.429C57.4816 197.173 57.4816 196.939 57.4816 196.725C57.5243 196.469 57.5669 196.213 57.6096 195.957C57.7376 195.616 58.0149 195.189 58.4416 194.677C58.6976 194.464 59.1029 194.293 59.6576 194.165C59.9136 194.08 60.1696 194.016 60.4256 193.973C60.6816 193.888 60.9803 193.824 61.3216 193.781C61.5776 193.739 61.8549 193.717 62.1536 193.717C62.4523 193.717 62.7509 193.717 63.0496 193.717H68.8736C69.3429 193.675 69.8763 193.739 70.4736 193.909C71.1136 194.037 71.6043 194.251 71.9456 194.549C72.0736 194.72 72.2016 194.891 72.3296 195.061C72.4576 195.232 72.5643 195.424 72.6496 195.637C72.8203 196.107 72.9269 196.576 72.9696 197.045C73.0123 197.301 73.0336 197.579 73.0336 197.877C73.0763 198.133 73.0976 198.368 73.0976 198.581V201.205ZM147.406 190.709C147.491 192.117 147.47 193.568 147.342 195.061C147.256 196.555 147.107 198.005 146.894 199.413C146.467 201.845 145.678 204.213 144.526 206.517C143.374 208.821 141.688 210.784 139.47 212.405C137.166 214.112 134.542 215.285 131.598 215.925C128.654 216.523 125.731 216.886 122.83 217.014C121.848 217.099 120.846 217.12 119.822 217.078C118.84 217.078 117.88 216.971 116.942 216.758C116.174 216.63 115.598 216.395 115.214 216.053C115 215.925 114.83 215.755 114.702 215.541C114.574 215.328 114.467 215.115 114.382 214.901C114.254 214.688 114.147 214.475 114.062 214.261C114.019 214.005 113.955 213.749 113.87 213.493C113.827 213.28 113.784 213.088 113.742 212.917C113.742 212.704 113.742 212.512 113.742 212.341V175.797C113.742 175.499 113.742 175.221 113.742 174.965C113.742 174.709 113.784 174.453 113.87 174.197C113.955 173.6 114.083 173.109 114.254 172.725C114.424 172.213 114.659 171.851 114.958 171.637C115.214 171.424 115.47 171.275 115.726 171.189C115.982 171.061 116.216 170.955 116.43 170.869C116.686 170.784 116.942 170.784 117.198 170.869C117.496 170.912 117.816 170.848 118.158 170.677L128.846 170.933C131.662 171.019 134.179 171.68 136.398 172.917C138.616 174.112 140.515 175.648 142.094 177.525C143.672 179.403 144.91 181.515 145.806 183.861C146.702 186.165 147.235 188.448 147.406 190.709ZM135.502 202.869C136.312 201.589 136.91 200.117 137.294 198.453C137.678 196.789 137.848 195.104 137.806 193.397C137.763 191.648 137.528 189.963 137.102 188.341C136.675 186.677 136.078 185.205 135.31 183.925C134.712 182.987 133.944 182.219 133.006 181.621C132.067 181.024 131.022 180.576 129.87 180.278C128.718 179.936 127.48 179.701 126.158 179.573C124.878 179.445 123.619 179.381 122.382 179.381C122.424 180.619 122.446 181.813 122.446 182.965C122.446 184.117 122.446 185.333 122.446 186.613C122.403 188.149 122.382 189.643 122.382 191.093C122.382 192.544 122.382 193.952 122.382 195.317V208.373C123.704 208.331 124.963 208.267 126.158 208.181C127.395 208.053 128.568 207.797 129.678 207.413C130.83 207.029 131.875 206.496 132.814 205.813C133.795 205.088 134.691 204.107 135.502 202.869ZM211.987 191.797C212.328 192.395 212.499 193.035 212.499 193.717C212.542 194.4 212.392 195.04 212.051 195.637C211.667 196.405 211.112 196.939 210.387 197.237C209.704 197.493 208.936 197.515 208.083 197.301C207.699 197.216 207.358 197.067 207.059 196.853C206.76 196.64 206.44 196.427 206.099 196.213C205.8 195.957 205.438 195.723 205.011 195.509C204.627 195.296 204.115 195.147 203.475 195.061C202.835 194.976 202.131 194.976 201.363 195.061C200.638 195.147 199.976 195.317 199.379 195.573C198.44 196.043 197.694 196.768 197.139 197.749C196.584 198.688 196.222 199.712 196.051 200.821C195.88 201.888 195.902 202.976 196.115 204.085C196.371 205.195 196.84 206.133 197.523 206.901C198.035 207.499 198.696 207.989 199.507 208.373C200.36 208.757 201.171 208.992 201.939 209.077C202.664 209.163 203.39 209.163 204.115 209.077C204.84 208.949 205.544 208.779 206.227 208.565C206.739 208.352 207.315 208.075 207.955 207.733C208.595 207.349 209.214 207.115 209.811 207.03C210.579 207.03 211.176 207.243 211.603 207.669C212.03 208.053 212.328 208.544 212.499 209.141C212.67 209.696 212.691 210.293 212.563 210.933C212.478 211.573 212.243 212.128 211.859 212.597C211.347 213.237 210.622 213.856 209.683 214.453C208.744 215.008 207.848 215.413 206.995 215.669C205.971 216.011 204.819 216.203 203.539 216.245C202.302 216.288 201.128 216.245 200.019 216.117C199.507 216.032 198.974 215.925 198.419 215.797C197.864 215.669 197.331 215.52 196.819 215.349C194.942 214.667 193.363 213.707 192.083 212.469C190.846 211.189 189.886 209.76 189.203 208.181C188.563 206.603 188.2 204.917 188.115 203.125C188.03 201.333 188.243 199.563 188.755 197.813C189.224 196.149 189.8 194.741 190.483 193.589C191.208 192.437 192.04 191.499 192.979 190.773C193.96 190.005 195.048 189.408 196.243 188.981C197.438 188.512 198.76 188.107 200.211 187.765C201.704 187.467 203.283 187.467 204.947 187.765C206.611 188.064 208.104 188.619 209.427 189.429C210.451 189.984 211.304 190.773 211.987 191.797ZM230.478 201.717C231.416 202.699 232.099 203.424 232.526 203.893C232.995 204.32 233.315 204.64 233.486 204.853C233.699 205.067 233.848 205.195 233.934 205.237C234.019 205.28 234.168 205.408 234.382 205.621C234.595 205.835 234.936 206.176 235.406 206.645C235.875 207.072 236.579 207.776 237.518 208.757C238.286 209.525 238.904 210.421 239.374 211.445C239.886 212.427 239.843 213.493 239.246 214.645C238.904 215.243 238.52 215.669 238.094 215.925C237.667 216.139 237.198 216.224 236.686 216.181C236.216 216.139 235.704 215.989 235.15 215.733C234.638 215.477 234.126 215.157 233.614 214.773C232.632 214.048 231.694 213.216 230.798 212.277C229.902 211.296 229.176 210.549 228.622 210.037C228.238 209.653 228.003 209.397 227.918 209.269C227.832 209.184 227.747 209.12 227.662 209.077C227.576 208.992 227.491 208.907 227.406 208.821C227.107 208.523 226.787 208.224 226.446 207.925C226.104 207.627 225.763 207.307 225.422 206.965V209.461C225.422 209.931 225.443 210.272 225.486 210.485C225.486 210.912 225.464 211.232 225.422 211.445C225.294 211.915 225.23 212.363 225.23 212.789C225.187 213.003 225.144 213.216 225.102 213.429C225.059 213.6 224.995 213.792 224.91 214.005C224.867 214.091 224.824 214.155 224.782 214.197C224.782 214.24 224.782 214.304 224.782 214.389C224.739 214.475 224.696 214.539 224.654 214.581C224.654 214.624 224.632 214.688 224.59 214.773C224.376 215.2 224.035 215.605 223.566 215.989C222.755 216.459 221.752 216.587 220.558 216.373C219.918 216.245 219.427 216.011 219.086 215.669C218.702 215.413 218.446 215.051 218.318 214.581C218.232 214.368 218.147 214.155 218.062 213.941C218.019 213.685 217.955 213.451 217.87 213.237C217.784 213.024 217.742 212.832 217.742 212.661C217.742 212.448 217.742 212.277 217.742 212.149V175.733C217.742 175.477 217.742 175.221 217.742 174.965C217.742 174.709 217.763 174.453 217.806 174.197C217.848 173.941 217.891 173.707 217.934 173.493C218.019 173.237 218.104 173.003 218.19 172.789C218.36 172.363 218.574 172.021 218.83 171.765C219.043 171.552 219.256 171.403 219.47 171.317C219.726 171.189 219.96 171.083 220.174 170.997C220.387 170.955 220.622 170.933 220.878 170.933C221.176 170.891 221.454 170.869 221.71 170.869C222.307 170.869 222.904 171.04 223.502 171.381C224.056 171.765 224.462 172.256 224.718 172.853C225.059 173.664 225.23 174.453 225.23 175.221C225.272 175.648 225.315 176.309 225.358 177.205C225.4 178.059 225.422 178.699 225.422 179.125V179.381C225.464 180.789 225.486 182.133 225.486 183.413C225.486 184.693 225.486 186.08 225.486 187.573C225.443 189.067 225.422 190.496 225.422 191.861C225.422 193.184 225.422 194.507 225.422 195.829V196.533C225.763 196.192 226.104 195.872 226.446 195.573C226.787 195.275 227.107 194.955 227.406 194.613C227.576 194.485 227.747 194.336 227.918 194.165L228.622 193.461C229.176 192.907 229.902 192.16 230.798 191.221C231.694 190.24 232.632 189.387 233.614 188.661C234.68 187.893 235.704 187.424 236.686 187.253C237.71 187.083 238.563 187.595 239.246 188.789C239.843 189.941 239.886 191.029 239.374 192.053C238.904 193.035 238.286 193.952 237.518 194.805C236.579 195.787 235.875 196.512 235.406 196.981C234.936 197.408 234.595 197.728 234.382 197.941C234.168 198.112 234.019 198.219 233.934 198.261C233.848 198.304 233.699 198.432 233.486 198.645C233.315 198.816 232.995 199.136 232.526 199.605C232.099 200.032 231.416 200.736 230.478 201.717ZM267.011 207.669C267.523 207.541 268.035 207.456 268.547 207.413C269.101 207.371 269.592 207.435 270.019 207.605C270.488 207.776 270.872 208.075 271.171 208.501C271.469 208.885 271.619 209.44 271.619 210.165C271.619 210.677 271.491 211.168 271.235 211.637C270.979 212.107 270.659 212.533 270.275 212.917C269.891 213.301 269.464 213.643 268.995 213.941C268.525 214.197 268.077 214.411 267.651 214.581C266.413 215.136 264.984 215.563 263.363 215.861C261.784 216.16 260.141 216.267 258.435 216.181C256.131 216.096 253.912 215.648 251.779 214.837C249.688 213.984 248.045 212.597 246.851 210.677C245.741 208.8 245.08 206.709 244.867 204.405C244.653 202.101 244.76 199.925 245.187 197.877C245.656 195.403 246.445 193.397 247.555 191.861C248.707 190.283 250.072 189.024 251.651 188.085C253.571 186.976 255.725 186.4 258.115 186.357C260.504 186.315 262.787 186.784 264.963 187.765C266.413 188.405 267.715 189.28 268.867 190.389C270.019 191.456 270.893 192.757 271.491 194.293C271.661 194.677 271.789 195.147 271.875 195.701C272.003 196.256 272.088 196.853 272.131 197.493C272.173 198.091 272.173 198.688 272.131 199.285C272.088 199.883 271.981 200.416 271.811 200.885C271.555 201.653 271.235 202.251 270.851 202.677C270.467 203.104 269.976 203.424 269.379 203.637C268.781 203.851 268.056 204 267.203 204.085C266.392 204.128 265.411 204.171 264.259 204.213C263.235 204.256 262.275 204.277 261.379 204.277C260.483 204.277 259.565 204.277 258.627 204.277C257.688 204.235 256.707 204.213 255.683 204.213C254.701 204.171 253.592 204.128 252.355 204.085C252.227 204.939 252.333 205.685 252.675 206.325C253.059 206.923 253.571 207.435 254.211 207.861C254.851 208.245 255.576 208.544 256.387 208.757C257.197 208.971 257.987 209.099 258.755 209.141C260.205 209.227 261.592 209.12 262.915 208.821C264.237 208.48 265.603 208.096 267.011 207.669ZM264.259 195.253C263.448 194.315 262.595 193.632 261.699 193.205C261.016 192.907 260.291 192.779 259.523 192.821C258.797 192.821 258.093 192.928 257.411 193.141C256.173 193.44 255.128 194.08 254.275 195.061C254.189 195.147 254.04 195.36 253.827 195.701C253.613 196 253.4 196.32 253.187 196.661C253.016 197.003 252.888 197.323 252.803 197.622C252.717 197.92 252.76 198.069 252.931 198.069H265.475C265.432 197.472 265.325 196.981 265.155 196.597C264.984 196.171 264.685 195.723 264.259 195.253ZM277.368 193.781C277.368 193.269 277.368 192.693 277.368 192.053C277.368 191.371 277.389 190.688 277.432 190.005C277.475 189.28 277.539 188.597 277.624 187.957C277.752 187.275 277.923 186.677 278.136 186.165C278.477 185.397 279.011 184.885 279.736 184.629C280.461 184.331 281.251 184.203 282.104 184.245C283 184.245 283.704 184.395 284.216 184.693C284.728 184.992 285.112 185.397 285.368 185.909C285.624 186.379 285.773 186.933 285.816 187.573C285.901 188.171 285.944 188.811 285.944 189.493C286.328 188.811 286.84 188.256 287.48 187.829C288.163 187.403 288.845 187.061 289.528 186.805C290.211 186.549 290.829 186.379 291.384 186.293C291.939 186.165 292.259 186.101 292.344 186.101C293.411 186.016 294.371 185.995 295.224 186.037C296.12 186.08 297.101 186.272 298.168 186.613C298.851 186.869 299.555 187.232 300.28 187.701C301.005 188.128 301.645 188.64 302.2 189.237C302.755 189.835 303.117 190.496 303.288 191.221C303.501 191.904 303.416 192.629 303.032 193.397C302.435 194.464 301.773 194.997 301.048 194.997C300.323 194.955 299.533 194.827 298.68 194.613C298.211 194.528 297.656 194.336 297.016 194.037C296.376 193.739 295.821 193.547 295.352 193.461C293.901 193.248 292.621 193.355 291.512 193.781C290.403 194.208 289.443 194.72 288.632 195.317C287.693 196.043 286.883 196.875 286.2 197.813V207.03C286.2 208.181 286.179 209.376 286.136 210.613C286.136 211.851 285.965 212.981 285.624 214.005C285.325 214.987 284.792 215.797 284.024 216.438C283.299 217.035 282.232 217.291 280.824 217.206C280.056 217.163 279.373 216.8 278.776 216.117C278.179 215.392 277.816 214.688 277.688 214.005C277.603 213.365 277.539 212.597 277.496 211.701C277.453 210.805 277.411 209.867 277.368 208.885C277.368 207.904 277.368 206.923 277.368 205.941C277.368 204.917 277.368 203.979 277.368 203.125V193.781ZM311.434 169.269C311.775 168.715 312.245 168.309 312.842 168.053C313.439 167.797 314.015 167.669 314.57 167.669C315.039 167.669 315.487 167.691 315.914 167.733C316.383 167.733 316.831 167.776 317.258 167.861C318.154 168.117 318.794 168.693 319.178 169.589C319.562 170.443 319.797 171.445 319.882 172.597C320.01 173.707 320.031 174.816 319.946 175.925C319.903 177.035 319.882 177.931 319.882 178.613V197.493C319.882 198.347 319.882 199.2 319.882 200.053C319.882 200.907 319.733 201.717 319.434 202.485C319.135 203.211 318.581 203.744 317.77 204.085C316.959 204.427 316.106 204.597 315.21 204.597C314.314 204.555 313.461 204.363 312.65 204.021C311.839 203.637 311.285 203.104 310.986 202.421C310.858 202.037 310.751 201.568 310.666 201.013C310.623 200.416 310.581 199.883 310.538 199.413C310.495 198.688 310.474 197.941 310.474 197.173C310.517 196.363 310.538 195.552 310.538 194.741V173.301C310.538 172.789 310.602 172.128 310.73 171.317C310.858 170.507 311.093 169.824 311.434 169.269ZM318.794 210.421C318.922 210.635 319.029 210.848 319.114 211.061C319.242 211.232 319.349 211.445 319.434 211.701C319.562 212.171 319.647 212.661 319.69 213.173C319.733 213.685 319.69 214.197 319.562 214.709C319.434 215.179 319.221 215.627 318.922 216.053C318.623 216.48 318.218 216.8 317.706 217.014C317.237 217.227 316.682 217.355 316.042 217.398C315.402 217.44 314.783 217.398 314.186 217.27C313.589 217.142 313.034 216.907 312.522 216.566C312.01 216.224 311.647 215.776 311.434 215.221C311.221 214.624 311.093 213.941 311.05 213.173C311.05 212.363 311.157 211.659 311.37 211.061C311.626 210.421 312.031 209.995 312.586 209.781C313.141 209.525 313.738 209.397 314.378 209.397C315.189 209.355 315.978 209.376 316.746 209.461C317.557 209.547 318.239 209.867 318.794 210.421Z" fill="white"/>
<path d="M86.4976 187.509C87.9056 186.827 89.3776 186.336 90.9136 186.037C92.4496 185.739 93.9643 185.675 95.4576 185.845C96.9936 186.016 98.4656 186.421 99.8736 187.061C101.324 187.701 102.647 188.597 103.842 189.749C104.823 190.731 105.676 191.925 106.402 193.333C107.127 194.699 107.66 196.043 108.002 197.365C108.727 199.712 108.834 202.08 108.322 204.469C107.81 206.859 106.935 209.077 105.698 211.125C105.1 212.064 104.354 212.917 103.458 213.685C102.604 214.411 101.687 215.008 100.706 215.477C99.4256 216.075 98.0389 216.48 96.5456 216.694C95.0523 216.95 93.6016 217.014 92.1936 216.886C89.6336 216.758 87.3723 216.117 85.4096 214.965C83.4896 213.813 81.9323 212.341 80.7376 210.549C79.5856 208.757 78.8176 206.731 78.4336 204.469C78.0923 202.165 78.2416 199.819 78.8816 197.429C79.5643 194.869 80.5456 192.8 81.8256 191.221C83.1483 189.6 84.7056 188.363 86.4976 187.509ZM88.4176 196.085C87.7776 196.683 87.2869 197.429 86.9456 198.325C86.6043 199.221 86.3909 200.16 86.3056 201.141C86.2203 202.08 86.2843 203.04 86.4976 204.021C86.7536 204.96 87.1376 205.813 87.6496 206.581C88.0763 207.221 88.8443 207.755 89.9536 208.181C91.0629 208.608 92.2149 208.864 93.4096 208.949C94.7749 209.035 95.9696 208.672 96.9936 207.861C98.0176 207.008 98.7856 205.963 99.2976 204.725C99.8523 203.488 100.108 202.144 100.066 200.693C100.023 199.243 99.6389 197.92 98.9136 196.725C98.4016 195.872 97.6763 195.253 96.7376 194.869C95.8416 194.443 94.8816 194.229 93.8576 194.229C92.8763 194.187 91.8949 194.336 90.9136 194.677C89.9323 194.976 89.1003 195.445 88.4176 196.085ZM160.935 187.509C162.343 186.827 163.815 186.336 165.351 186.037C166.887 185.739 168.402 185.675 169.895 185.845C171.431 186.016 172.903 186.421 174.311 187.061C175.762 187.701 177.084 188.597 178.279 189.749C179.26 190.731 180.114 191.925 180.839 193.333C181.564 194.699 182.098 196.043 182.439 197.365C183.164 199.712 183.271 202.08 182.759 204.469C182.247 206.859 181.372 209.077 180.135 211.125C179.538 212.064 178.791 212.917 177.895 213.685C177.042 214.411 176.124 215.008 175.143 215.477C173.863 216.075 172.476 216.48 170.983 216.694C169.49 216.95 168.039 217.014 166.631 216.886C164.071 216.758 161.81 216.117 159.847 214.965C157.927 213.813 156.37 212.341 155.175 210.549C154.023 208.757 153.255 206.731 152.871 204.469C152.53 202.165 152.679 199.819 153.319 197.429C154.002 194.869 154.983 192.8 156.263 191.221C157.586 189.6 159.143 188.363 160.935 187.509ZM162.855 196.085C162.215 196.683 161.724 197.429 161.383 198.325C161.042 199.221 160.828 200.16 160.743 201.141C160.658 202.08 160.722 203.04 160.935 204.021C161.191 204.96 161.575 205.813 162.087 206.581C162.514 207.221 163.282 207.755 164.391 208.181C165.5 208.608 166.652 208.864 167.847 208.949C169.212 209.035 170.407 208.672 171.431 207.861C172.455 207.008 173.223 205.963 173.735 204.725C174.29 203.488 174.546 202.144 174.503 200.693C174.46 199.243 174.076 197.92 173.351 196.725C172.839 195.872 172.114 195.253 171.175 194.869C170.279 194.443 169.319 194.229 168.295 194.229C167.314 194.187 166.332 194.336 165.351 194.677C164.37 194.976 163.538 195.445 162.855 196.085Z" fill="#D1ECFF"/>
<path d="M65.1319 239.67C90.6254 271.455 155.578 315.953 211.443 239.67" stroke="#D1ECFF" stroke-width="11" stroke-linecap="round"/>
</svg>
